<svg width="500" height="500" viewBox="0 0 500 500" fill="none" xmlns="http://www.w3.org/2000/svg">
<g filter="url(#filter0_di)">
<path d="M410.557 253.424C412.076 251.891 412.076 249.421 410.557 247.889L347.261 183.99C344.789 181.495 340.534 183.245 340.534 186.758L340.534 212.298C340.534 213.342 340.949 214.342 341.687 215.08L374.499 247.875C376.035 249.411 376.035 251.902 374.499 253.438L341.687 286.233C340.949 286.97 340.534 287.971 340.534 289.014L340.534 314.555C340.534 318.067 344.789 319.818 347.261 317.322L410.557 253.424Z" fill="white"/>
</g>
<g filter="url(#filter1_di)">
<path d="M88.7416 253.268C87.2233 251.735 87.2233 249.265 88.7416 247.732L152.038 183.834C154.51 181.338 158.765 183.089 158.765 186.602L158.765 212.142C158.765 213.185 158.35 214.186 157.612 214.924L124.8 247.718C123.263 249.254 123.263 251.746 124.8 253.282L157.612 286.076C158.35 286.814 158.765 287.815 158.765 288.858L158.765 314.398C158.765 317.911 154.51 319.662 152.038 317.166L88.7416 253.268Z" fill="white"/>
</g>
<g filter="url(#filter2_di)">
<path d="M244.79 164H187.116C184.354 164 182.116 166.239 182.116 169V332C182.116 334.761 184.354 337 187.116 337H233.912C236.673 337 238.912 334.761 238.912 332V272.915C238.912 271.895 239.738 271.068 240.758 271.068H305.184C311.811 271.068 317.184 265.696 317.184 259.068V176C317.184 169.373 311.811 164 305.184 164H244.79Z" fill="url(#paint0_linear)"/>
</g>
<defs>
<filter id="filter0_di" x="335.534" y="180.817" width="81.1618" height="151.678" filterUnits="userSpaceOnUse" color-interpolation-filters="sRGB">
<feFlood flood-opacity="0" result="BackgroundImageFix"/>
<feColorMatrix in="SourceAlpha" type="matrix" values="0 0 0 0 0 0 0 0 0 0 0 0 0 0 0 0 0 0 127 0"/>
<feOffset dy="9"/>
<feGaussianBlur stdDeviation="2.5"/>
<feColorMatrix type="matrix" values="0 0 0 0 0 0 0 0 0 0 0 0 0 0 0 0 0 0 0.15 0"/>
<feBlend mode="normal" in2="BackgroundImageFix" result="effect1_dropShadow"/>
<feBlend mode="normal" in="SourceGraphic" in2="effect1_dropShadow" result="shape"/>
<feColorMatrix in="SourceAlpha" type="matrix" values="0 0 0 0 0 0 0 0 0 0 0 0 0 0 0 0 0 0 127 0" result="hardAlpha"/>
<feOffset dy="-2"/>
<feGaussianBlur stdDeviation="1"/>
<feComposite in2="hardAlpha" operator="arithmetic" k2="-1" k3="1"/>
<feColorMatrix type="matrix" values="0 0 0 0 0 0 0 0 0 0 0 0 0 0 0 0 0 0 0.15 0"/>
<feBlend mode="normal" in2="shape" result="effect2_innerShadow"/>
</filter>
<filter id="filter1_di" x="82.6028" y="180.661" width="81.1618" height="151.678" filterUnits="userSpaceOnUse" color-interpolation-filters="sRGB">
<feFlood flood-opacity="0" result="BackgroundImageFix"/>
<feColorMatrix in="SourceAlpha" type="matrix" values="0 0 0 0 0 0 0 0 0 0 0 0 0 0 0 0 0 0 127 0"/>
<feOffset dy="9"/>
<feGaussianBlur stdDeviation="2.5"/>
<feColorMatrix type="matrix" values="0 0 0 0 0 0 0 0 0 0 0 0 0 0 0 0 0 0 0.15 0"/>
<feBlend mode="normal" in2="BackgroundImageFix" result="effect1_dropShadow"/>
<feBlend mode="normal" in="SourceGraphic" in2="effect1_dropShadow" result="shape"/>
<feColorMatrix in="SourceAlpha" type="matrix" values="0 0 0 0 0 0 0 0 0 0 0 0 0 0 0 0 0 0 127 0" result="hardAlpha"/>
<feOffset dy="-2"/>
<feGaussianBlur stdDeviation="1"/>
<feComposite in2="hardAlpha" operator="arithmetic" k2="-1" k3="1"/>
<feColorMatrix type="matrix" values="0 0 0 0 0 0 0 0 0 0 0 0 0 0 0 0 0 0 0.15 0"/>
<feBlend mode="normal" in2="shape" result="effect2_innerShadow"/>
</filter>
<filter id="filter2_di" x="178.116" y="162" width="143.068" height="183" filterUnits="userSpaceOnUse" color-interpolation-filters="sRGB">
<feFlood flood-opacity="0" result="BackgroundImageFix"/>
<feColorMatrix in="SourceAlpha" type="matrix" values="0 0 0 0 0 0 0 0 0 0 0 0 0 0 0 0 0 0 127 0"/>
<feOffset dy="4"/>
<feGaussianBlur stdDeviation="2"/>
<feColorMatrix type="matrix" values="0 0 0 0 0 0 0 0 0 0 0 0 0 0 0 0 0 0 0.25 0"/>
<feBlend mode="normal" in2="BackgroundImageFix" result="effect1_dropShadow"/>
<feBlend mode="normal" in="SourceGraphic" in2="effect1_dropShadow" result="shape"/>
<feColorMatrix in="SourceAlpha" type="matrix" values="0 0 0 0 0 0 0 0 0 0 0 0 0 0 0 0 0 0 127 0" result="hardAlpha"/>
<feOffset dy="-2"/>
<feGaussianBlur stdDeviation="1"/>
<feComposite in2="hardAlpha" operator="arithmetic" k2="-1" k3="1"/>
<feColorMatrix type="matrix" values="0 0 0 0 0 0 0 0 0 0 0 0 0 0 0 0 0 0 0.15 0"/>
<feBlend mode="normal" in2="shape" result="effect2_innerShadow"/>
</filter>
<linearGradient id="paint0_linear" x1="182" y1="285" x2="481.536" y2="278.051" gradientUnits="userSpaceOnUse">
<stop stop-color="#3C82C7"/>
<stop offset="1" stop-color="#9CECFF"/>
</linearGradient>
</defs>
</svg>
