<svg width="325" height="173" viewBox="0 0 325 173" fill="none" xmlns="http://www.w3.org/2000/svg">
<g clip-path="url(#clip0)">
<g filter="url(#filter0_di)">
<path d="M322.954 89.424C324.473 87.891 324.473 85.421 322.954 83.889L259.658 19.99C257.186 17.495 252.931 19.245 252.931 22.758V48.298C252.931 49.342 253.346 50.342 254.084 51.08L286.896 83.875C288.432 85.411 288.432 87.902 286.896 89.438L254.084 122.233C253.346 122.97 252.931 123.971 252.931 125.014V150.555C252.931 154.067 257.186 155.818 259.658 153.322L322.954 89.424Z" fill="white"/>
</g>
<g filter="url(#filter1_di)">
<path d="M1.13873 89.268C-0.379575 87.735 -0.379575 85.265 1.13873 83.732L64.4351 19.834C66.9071 17.338 71.1621 19.089 71.1621 22.602V48.142C71.1621 49.185 70.7471 50.186 70.0091 50.924L37.1971 83.718C35.6601 85.254 35.6601 87.746 37.1971 89.282L70.0091 122.076C70.7471 122.814 71.1621 123.815 71.1621 124.858V150.398C71.1621 153.911 66.9071 155.662 64.4351 153.166L1.13873 89.268Z" fill="white"/>
</g>
<g filter="url(#filter2_di)">
<path d="M157.187 0H99.5132C96.7512 0 94.5132 2.239 94.5132 5V168C94.5132 170.761 96.7512 173 99.5132 173H146.309C149.07 173 151.309 170.761 151.309 168V108.915C151.309 107.895 152.135 107.068 153.155 107.068H217.581C224.208 107.068 229.581 101.696 229.581 95.068V12C229.581 5.373 224.208 0 217.581 0H157.187Z" fill="url(#paint0_linear)"/>
</g>
</g>
<defs>
<filter id="filter0_di" x="247.931" y="16.8173" width="81.1623" height="151.678" filterUnits="userSpaceOnUse" color-interpolation-filters="sRGB">
<feFlood flood-opacity="0" result="BackgroundImageFix"/>
<feColorMatrix in="SourceAlpha" type="matrix" values="0 0 0 0 0 0 0 0 0 0 0 0 0 0 0 0 0 0 127 0" result="hardAlpha"/>
<feOffset dy="9"/>
<feGaussianBlur stdDeviation="2.5"/>
<feColorMatrix type="matrix" values="0 0 0 0 0 0 0 0 0 0 0 0 0 0 0 0 0 0 0.15 0"/>
<feBlend mode="normal" in2="BackgroundImageFix" result="effect1_dropShadow"/>
<feBlend mode="normal" in="SourceGraphic" in2="effect1_dropShadow" result="shape"/>
<feColorMatrix in="SourceAlpha" type="matrix" values="0 0 0 0 0 0 0 0 0 0 0 0 0 0 0 0 0 0 127 0" result="hardAlpha"/>
<feOffset dy="-2"/>
<feGaussianBlur stdDeviation="1"/>
<feComposite in2="hardAlpha" operator="arithmetic" k2="-1" k3="1"/>
<feColorMatrix type="matrix" values="0 0 0 0 0 0 0 0 0 0 0 0 0 0 0 0 0 0 0.15 0"/>
<feBlend mode="normal" in2="shape" result="effect2_innerShadow"/>
</filter>
<filter id="filter1_di" x="-5" y="16.6609" width="81.1621" height="151.678" filterUnits="userSpaceOnUse" color-interpolation-filters="sRGB">
<feFlood flood-opacity="0" result="BackgroundImageFix"/>
<feColorMatrix in="SourceAlpha" type="matrix" values="0 0 0 0 0 0 0 0 0 0 0 0 0 0 0 0 0 0 127 0" result="hardAlpha"/>
<feOffset dy="9"/>
<feGaussianBlur stdDeviation="2.5"/>
<feColorMatrix type="matrix" values="0 0 0 0 0 0 0 0 0 0 0 0 0 0 0 0 0 0 0.15 0"/>
<feBlend mode="normal" in2="BackgroundImageFix" result="effect1_dropShadow"/>
<feBlend mode="normal" in="SourceGraphic" in2="effect1_dropShadow" result="shape"/>
<feColorMatrix in="SourceAlpha" type="matrix" values="0 0 0 0 0 0 0 0 0 0 0 0 0 0 0 0 0 0 127 0" result="hardAlpha"/>
<feOffset dy="-2"/>
<feGaussianBlur stdDeviation="1"/>
<feComposite in2="hardAlpha" operator="arithmetic" k2="-1" k3="1"/>
<feColorMatrix type="matrix" values="0 0 0 0 0 0 0 0 0 0 0 0 0 0 0 0 0 0 0.15 0"/>
<feBlend mode="normal" in2="shape" result="effect2_innerShadow"/>
</filter>
<filter id="filter2_di" x="90.5132" y="-2" width="143.068" height="183" filterUnits="userSpaceOnUse" color-interpolation-filters="sRGB">
<feFlood flood-opacity="0" result="BackgroundImageFix"/>
<feColorMatrix in="SourceAlpha" type="matrix" values="0 0 0 0 0 0 0 0 0 0 0 0 0 0 0 0 0 0 127 0" result="hardAlpha"/>
<feOffset dy="4"/>
<feGaussianBlur stdDeviation="2"/>
<feColorMatrix type="matrix" values="0 0 0 0 0 0 0 0 0 0 0 0 0 0 0 0 0 0 0.25 0"/>
<feBlend mode="normal" in2="BackgroundImageFix" result="effect1_dropShadow"/>
<feBlend mode="normal" in="SourceGraphic" in2="effect1_dropShadow" result="shape"/>
<feColorMatrix in="SourceAlpha" type="matrix" values="0 0 0 0 0 0 0 0 0 0 0 0 0 0 0 0 0 0 127 0" result="hardAlpha"/>
<feOffset dy="-2"/>
<feGaussianBlur stdDeviation="1"/>
<feComposite in2="hardAlpha" operator="arithmetic" k2="-1" k3="1"/>
<feColorMatrix type="matrix" values="0 0 0 0 0 0 0 0 0 0 0 0 0 0 0 0 0 0 0.15 0"/>
<feBlend mode="normal" in2="shape" result="effect2_innerShadow"/>
</filter>
<linearGradient id="paint0_linear" x1="94.3972" y1="121" x2="393.933" y2="114.051" gradientUnits="userSpaceOnUse">
<stop stop-color="#3C82C7"/>
<stop offset="1" stop-color="#9CECFF"/>
</linearGradient>
<clipPath id="clip0">
<rect width="324.09" height="173" fill="white"/>
</clipPath>
</defs>
</svg>
